<svg xmlns="http://www.w3.org/2000/svg" xmlns:xlink="http://www.w3.org/1999/xlink" width="945" zoomAndPan="magnify" viewBox="0 0 708.75 567.000005" height="756" preserveAspectRatio="xMidYMid meet" version="1.0"><defs><g/><clipPath id="0278d93a6f"><path d="M 0.5 0 L 708 0 L 708 566 L 0.5 566 Z M 0.5 0 " clip-rule="nonzero"/></clipPath><clipPath id="a7d08f1b2c"><path d="M 0.5 0 L 708 0 L 708 566 L 0.5 566 Z M 0.5 0 " clip-rule="nonzero"/></clipPath><clipPath id="a9ad46b67a"><path d="M 134.117188 27.773438 L 574.394531 27.773438 L 574.394531 538.4375 L 134.117188 538.4375 Z M 134.117188 27.773438 " clip-rule="nonzero"/></clipPath><clipPath id="57475009a5"><path d="M 344.199219 103.304688 L 413.527344 103.304688 L 413.527344 201.335938 L 344.199219 201.335938 Z M 344.199219 103.304688 " clip-rule="nonzero"/></clipPath><clipPath id="447a263bf1"><path d="M 370.40625 103.304688 L 387.320312 103.304688 C 401.792969 103.304688 413.527344 115.035156 413.527344 129.511719 L 413.527344 175.105469 C 413.527344 189.578125 401.792969 201.3125 387.320312 201.3125 L 370.40625 201.3125 C 355.933594 201.3125 344.199219 189.578125 344.199219 175.105469 L 344.199219 129.511719 C 344.199219 115.035156 355.933594 103.304688 370.40625 103.304688 Z M 370.40625 103.304688 " clip-rule="nonzero"/></clipPath><clipPath id="5c7322ba3f"><path d="M 0.199219 0.304688 L 69.527344 0.304688 L 69.527344 98.335938 L 0.199219 98.335938 Z M 0.199219 0.304688 " clip-rule="nonzero"/></clipPath><clipPath id="636567f3d2"><path d="M 26.40625 0.304688 L 43.320312 0.304688 C 57.792969 0.304688 69.527344 12.035156 69.527344 26.511719 L 69.527344 72.105469 C 69.527344 86.578125 57.792969 98.3125 43.320312 98.3125 L 26.40625 98.3125 C 11.933594 98.3125 0.199219 86.578125 0.199219 72.105469 L 0.199219 26.511719 C 0.199219 12.035156 11.933594 0.304688 26.40625 0.304688 Z M 26.40625 0.304688 " clip-rule="nonzero"/></clipPath><clipPath id="b3b634aa7c"><rect x="0" width="70" y="0" height="99"/></clipPath><clipPath id="a437366c85"><rect x="0" width="52" y="0" height="119"/></clipPath><clipPath id="b7f3bc2881"><rect x="0" width="708" y="0" height="566"/></clipPath></defs><g clip-path="url(#0278d93a6f)"><path fill="#ffffff" d="M 0.5 0 L 708 0 L 708 566 L 0.5 566 Z M 0.5 0 " fill-opacity="1" fill-rule="nonzero"/><g transform="matrix(1, 0, 0, 1, 0.000000000000000111, -0.000000000000018843)"><g clip-path="url(#b7f3bc2881)"><g clip-path="url(#a7d08f1b2c)"><path fill="#ffffff" d="M 0.5 0 L 708.089844 0 L 708.089844 566.074219 L 0.5 566.074219 Z M 0.5 0 " fill-opacity="1" fill-rule="nonzero"/></g><g clip-path="url(#a9ad46b67a)"><path fill="#000000" d="M 558.792969 260.835938 C 541.613281 247.667969 516.894531 250.914062 503.683594 268.0625 L 459.683594 325.390625 C 453.488281 311.804688 439.863281 302.292969 423.988281 302.292969 L 286.886719 302.292969 C 279.175781 302.292969 271.917969 305.300781 266.46875 310.753906 L 195.179688 382.078125 L 194.636719 381.535156 C 187.539062 374.414062 175.140625 374.433594 168.042969 381.535156 L 139.816406 409.777344 C 132.484375 417.113281 132.484375 429.039062 139.816406 436.382812 L 236.375 532.980469 C 240.042969 536.644531 244.855469 538.480469 249.667969 538.480469 C 254.484375 538.480469 259.300781 536.640625 262.964844 532.980469 L 291.191406 504.746094 C 298.527344 497.410156 298.527344 485.472656 291.191406 478.128906 L 289.847656 476.785156 L 308.929688 457.699219 C 311.375 455.253906 314.675781 454.097656 318.199219 453.972656 L 443.574219 456.367188 C 452.8125 456.441406 461.472656 452.300781 467.039062 445.058594 L 566.03125 315.988281 C 571.339844 309.027344 574.140625 300.753906 574.140625 292.039062 C 574.140625 279.695312 568.550781 268.332031 558.792969 260.847656 Z M 279.796875 493.332031 L 251.570312 521.566406 C 250.195312 522.929688 249.148438 522.929688 247.773438 521.566406 L 151.214844 424.96875 C 150.53125 424.285156 150.425781 423.488281 150.425781 423.066406 C 150.425781 422.644531 150.53125 421.847656 151.214844 421.164062 L 179.445312 392.921875 C 180.128906 392.238281 180.925781 392.132812 181.34375 392.132812 C 181.757812 392.132812 182.558594 392.238281 183.242188 392.921875 L 279.800781 489.515625 C 280.851562 490.566406 280.851562 492.277344 279.800781 493.328125 Z M 553.226562 306.183594 L 454.246094 435.242188 C 451.785156 438.445312 448.167969 440.039062 443.878906 440.230469 L 318.511719 437.839844 C 310.921875 437.914062 303.066406 440.757812 297.53125 446.289062 L 278.449219 465.378906 L 206.574219 393.476562 L 277.863281 322.152344 C 280.269531 319.742188 283.476562 318.417969 286.882812 318.417969 L 423.984375 318.417969 C 436.757812 318.417969 447.148438 328.824219 447.148438 341.597656 C 447.148438 354.371094 436.75 364.769531 423.984375 364.769531 L 351.125 364.769531 C 346.675781 364.769531 343.0625 368.382812 343.0625 372.832031 C 343.0625 377.28125 346.675781 380.894531 351.125 380.894531 L 423.984375 380.894531 C 443.441406 380.894531 459.527344 366.632812 462.625 348.03125 L 516.449219 277.898438 C 524.242188 267.789062 538.859375 265.875 548.988281 273.636719 C 554.722656 278.046875 558.011719 284.746094 558.011719 292.03125 C 558.011719 297.171875 556.355469 302.082031 553.222656 306.183594 Z M 378.769531 275.941406 C 447.15625 275.941406 502.796875 220.273438 502.796875 151.859375 C 502.796875 83.449219 447.15625 27.789062 378.769531 27.789062 C 310.382812 27.789062 254.738281 83.449219 254.738281 151.859375 C 254.738281 220.273438 310.382812 275.941406 378.769531 275.941406 Z M 378.769531 43.917969 C 438.269531 43.917969 486.679688 92.34375 486.679688 151.867188 C 486.679688 211.390625 438.269531 259.824219 378.769531 259.824219 C 319.269531 259.824219 270.859375 211.398438 270.859375 151.867188 C 270.859375 92.332031 319.269531 43.917969 378.769531 43.917969 Z M 378.769531 233.757812 C 423.902344 233.757812 460.625 197.023438 460.625 151.867188 C 460.625 106.707031 423.902344 69.984375 378.769531 69.984375 C 333.636719 69.984375 296.914062 106.71875 296.914062 151.867188 C 296.914062 197.011719 333.636719 233.757812 378.769531 233.757812 Z M 378.769531 86.101562 C 415.011719 86.101562 444.507812 115.609375 444.507812 151.859375 C 444.507812 188.113281 415.011719 217.628906 378.769531 217.628906 C 342.527344 217.628906 313.03125 188.125 313.03125 151.859375 C 313.03125 115.597656 342.527344 86.101562 378.769531 86.101562 Z M 353.15625 137.238281 C 353.15625 126.496094 360.675781 117.527344 370.703125 115.1875 L 370.703125 112.40625 C 370.703125 107.957031 374.316406 104.34375 378.765625 104.34375 C 383.210938 104.34375 386.824219 107.957031 386.824219 112.40625 L 386.824219 115.058594 C 394.503906 116.273438 401.054688 121.40625 403.558594 128.984375 L 403.960938 130.160156 C 405.371094 134.382812 403.089844 138.960938 398.871094 140.367188 C 394.628906 141.785156 390.089844 139.503906 388.667969 135.28125 L 388.261719 134.074219 C 387.589844 132.027344 385.710938 130.671875 383.589844 130.671875 L 375.839844 130.671875 C 372.21875 130.671875 369.277344 133.613281 369.277344 137.234375 C 369.277344 140.851562 372.222656 143.792969 375.839844 143.792969 L 381.683594 143.792969 C 394.195312 143.792969 404.371094 153.964844 404.371094 166.484375 C 404.371094 177.226562 396.855469 186.199219 386.824219 188.542969 L 386.824219 191.324219 C 386.824219 195.773438 383.210938 199.386719 378.765625 199.386719 C 374.316406 199.386719 370.703125 195.773438 370.703125 191.324219 L 370.703125 188.671875 C 363.023438 187.457031 356.472656 182.324219 353.96875 174.746094 L 353.5625 173.539062 C 352.160156 169.308594 354.445312 164.75 358.675781 163.34375 C 362.910156 161.90625 367.460938 164.234375 368.867188 168.460938 L 369.273438 169.679688 C 369.9375 171.703125 371.816406 173.058594 373.941406 173.058594 L 381.6875 173.058594 C 385.308594 173.058594 388.25 170.105469 388.25 166.488281 C 388.25 162.871094 385.304688 159.929688 381.6875 159.929688 L 375.84375 159.929688 C 363.332031 159.929688 353.15625 149.753906 353.15625 137.238281 Z M 353.15625 137.238281 " fill-opacity="1" fill-rule="nonzero"/></g><g clip-path="url(#57475009a5)"><g clip-path="url(#447a263bf1)"><g transform="matrix(1, 0, 0, 1, 344, 103)"><g clip-path="url(#b3b634aa7c)"><g clip-path="url(#5c7322ba3f)"><g clip-path="url(#636567f3d2)"><path fill="#ffffff" d="M 0.199219 0.304688 L 69.527344 0.304688 L 69.527344 98.335938 L 0.199219 98.335938 Z M 0.199219 0.304688 " fill-opacity="1" fill-rule="nonzero"/></g></g></g></g></g></g><g transform="matrix(1, 0, 0, 1, 354, 84)"><g clip-path="url(#a437366c85)"><g fill="#000000" fill-opacity="1"><g transform="translate(1.073226, 92.130041)"><g><path d="M 20.1875 0 L 20.1875 -15.5 L 4.5 -15.5 L 4.5 -19.65625 L 20.1875 -19.65625 L 20.1875 -26.15625 L 4.5 -26.15625 L 4.5 -30.3125 L 18.359375 -30.3125 L 2.34375 -61.59375 L 9.875 -61.59375 L 17.765625 -44.53125 C 18.742188 -42.382812 19.707031 -40.242188 20.65625 -38.109375 C 21.613281 -35.972656 22.582031 -33.75 23.5625 -31.4375 L 24 -31.4375 C 25.09375 -33.8125 26.113281 -36.050781 27.0625 -38.15625 C 28.019531 -40.257812 29.019531 -42.382812 30.0625 -44.53125 L 38.03125 -61.59375 L 45.125 -61.59375 L 29.109375 -30.3125 L 43.046875 -30.3125 L 43.046875 -26.15625 L 27.203125 -26.15625 L 27.203125 -19.65625 L 43.046875 -19.65625 L 43.046875 -15.5 L 27.203125 -15.5 L 27.203125 0 Z M 20.1875 0 "/></g></g></g></g></g></g></g></g></svg>